<?xml version="1.0" encoding="UTF-8"?>
<svg version="1.1" xmlns="http://www.w3.org/2000/svg" width="600" height="379" viewBox="0 0 600 379">
<path d="M0 0 C0.495 1.98 0.495 1.98 1 4 C-0.10408203 4.74443359 -0.10408203 4.74443359 -1.23046875 5.50390625 C-9.14744795 11.01546244 -14.31462016 15.46748283 -17 25 C-17.9763953 34.37793626 -16.73960525 42.38829075 -13 51 C-12.62230469 51.87914062 -12.24460938 52.75828125 -11.85546875 53.6640625 C-6.51291003 64.60743051 2.49693671 74.41501783 11.8359375 82.14453125 C22.27522513 91.09518401 32.77534866 100.80908192 35 115 C35.22443517 119.75209378 35.04837509 124.49480582 34.921875 129.24804688 C34.60339166 149.13998524 42.52121524 162.03778163 56 176 C58.14367711 178.16763726 60.30246625 180.31978176 62.46484375 182.46875 C63.33869972 183.33777199 63.33869972 183.33777199 64.23020935 184.22434998 C67.1690681 187.14157019 70.11942968 190.0455994 73.09057617 192.92993164 C80.7919331 200.45986513 87.55371691 208.37479783 94 217 C94.67579102 217.89871826 95.35158203 218.79743652 96.04785156 219.72338867 C110.9052017 239.78612071 117.99051934 263.20628218 114.71582031 288.16601562 C111.93100681 302.3065968 101.9651381 314.34607156 90.62109375 322.765625 C84.85164553 326.46317193 80.50529814 327.1384881 73.8125 327.0625 C73.06291016 327.05798828 72.31332031 327.05347656 71.54101562 327.04882812 C69.69397617 327.03706354 67.84697787 327.01912865 66 327 C66.58824437 323.52568167 67.49492735 320.61917933 69 317.4375 C73.98858892 306.85508894 73.21280041 294.2181082 69.390625 283.34375 C59.19476746 258.82786783 43.65174994 239.44083908 24.9375 220.8125 C24.09123047 219.96236328 23.24496094 219.11222656 22.37304688 218.23632812 C17.96543008 213.83550797 13.49950691 209.5715467 8.76074219 205.52807617 C2.09147016 199.7400876 -5.2580976 193.2335484 -6.203125 184.01953125 C-6.44910649 172.43790291 -3.61640815 161.16094599 -0.640625 150.05200195 C3.06687373 136.10844025 6.7058845 121.3789283 -1 108 C-3.74009661 104.79100985 -7.11815896 102.62106845 -11 101 C-13.16466356 100.8237044 -13.16466356 100.8237044 -15.375 101.125 C-16.46941406 101.22167969 -16.46941406 101.22167969 -17.5859375 101.3203125 C-23.53391474 102.9949857 -26.64243488 106.43110929 -29.58007812 111.5859375 C-29.94552734 112.25882812 -30.31097656 112.93171875 -30.6875 113.625 C-34.6402027 120.76013514 -34.6402027 120.76013514 -38 123 C-43.4801397 122.79320228 -46.87672087 121.60786924 -51 118 C-64.93072981 99.93206968 -70.89949753 78.39921211 -70.59692383 55.95019531 C-70.56227374 53.10643098 -70.57642852 50.26573374 -70.59570312 47.421875 C-70.58435635 31.89067927 -67.98346003 21.62374984 -57.19140625 10.0625 C-43.21271931 -3.42213771 -18.03433343 -5.3435062 0 0 Z " fill="#3E69A3" transform="translate(220,46)"/>
<path d="M0 0 C7.99475945 5.52349681 14.7680754 13.62274704 21.6171875 20.484375 C22.92361111 21.79012393 24.23018304 23.09572447 25.53689575 24.40118408 C28.25994762 27.1227693 30.98120161 29.84613589 33.70117188 32.57080078 C37.18809664 36.0634507 40.67953034 39.55155346 44.17230034 43.03835678 C46.86436612 45.72681318 49.55405085 48.41764152 52.24301529 51.10919952 C53.53009776 52.39694875 54.81792258 53.68395644 56.10650253 54.97020721 C57.90139315 56.76256209 59.69305375 58.55808434 61.48388672 60.35449219 C62.01582138 60.88440262 62.54775604 61.41431305 63.09580994 61.96028137 C66.58603923 65.47069394 68.80950432 67.73002882 69.5625 72.75 C69.49877083 76.5808313 68.29436453 78.24593701 65.625 80.9375 C62.83794245 83.45502729 61.0358327 84.85875009 57.25 85.375 C52.77102456 84.85819514 51.2262808 83.07264838 48 80 C43.80374091 81.63778045 41.01323215 84.73323182 37.921875 87.8828125 C37.35043762 88.45707977 36.77900024 89.03134705 36.19024658 89.62301636 C34.37207055 91.4523581 32.56098508 93.28854193 30.75 95.125 C29.51608671 96.36894774 28.28171678 97.6124427 27.046875 98.85546875 C24.02593257 101.89842367 21.01132908 104.94753254 18 108 C20.36841333 114.98392904 23.07580066 121.44891222 26.6875 127.875 C27.48918552 129.30648966 28.28496106 130.74130833 29.07421875 132.1796875 C29.42057373 132.79569824 29.76692871 133.41170898 30.1237793 134.04638672 C35.88732034 146.89672258 30.84461058 164.82597164 28.80175781 178.04101562 C28.25053596 181.62151864 27.72191009 185.20486475 27.1953125 188.7890625 C26.84509988 191.10176732 26.4935813 193.41427483 26.140625 195.7265625 C25.90910736 197.30674667 25.90910736 197.30674667 25.6729126 198.91885376 C22.86550268 216.74362531 16.23174546 226.12373639 3.5625 238.5 C-1.97782673 243.93505663 -7.46727819 249.33259623 -12.48608398 255.2590332 C-14.66673571 257.76672994 -17.01436332 260.08904898 -19.38671875 262.4140625 C-20.76498242 263.76896577 -22.10544865 265.16213833 -23.4375 266.5625 C-32.25576472 274.95060546 -41.4008914 279.22069278 -53.8125 279.25 C-55.54253894 279.18733365 -57.27245693 279.11205685 -59 279 C-54.59353683 264.87401759 -46.66295663 255.57253826 -36.3515625 245.3828125 C-22.845795 231.69756636 -19.21113527 213.8861991 -18.8125 195.25 C-19.01304113 179.72811659 -21.6207229 163.17029581 -32 151 C-33.3913693 149.65055144 -34.78372139 148.30191384 -36.1953125 146.97363281 C-45.65419839 138.02854766 -46.13295794 130.3374913 -46.59716797 117.81665039 C-47.19889537 102.86358577 -49.22388211 85.33732275 -60 74 C-68.02513173 67.42482933 -77.27877155 63.32219355 -86.63110352 59.04956055 C-100.47539439 52.6947181 -100.47539439 52.6947181 -106 47 C-106.9375 44.125 -106.9375 44.125 -107 42 C-92.01313687 37.33742036 -74.48103361 34.61447952 -60 42 C-58.57482958 42.76452491 -57.15183589 43.53311475 -55.73046875 44.3046875 C-54.9712915 44.71533447 -54.21211426 45.12598145 -53.42993164 45.54907227 C-51.91781505 46.3779255 -50.41514659 47.22430472 -48.92358398 48.08959961 C-48.22950439 48.47897705 -47.5354248 48.86835449 -46.8203125 49.26953125 C-45.89629639 49.80477417 -45.89629639 49.80477417 -44.95361328 50.35083008 C-42.12384644 51.29113875 -40.81502853 51.0403647 -38 50 C-35.71661309 48.05700739 -33.67704217 46.14339135 -31.60546875 43.99609375 C-31.01325027 43.39821548 -30.4210318 42.80033722 -29.81086731 42.18434143 C-27.92679531 40.27792983 -26.05712846 38.35806809 -24.1875 36.4375 C-22.91043146 35.14036347 -21.63244661 33.84412838 -20.35351562 32.54882812 C-17.22495948 29.37623663 -14.10924811 26.19151172 -11 23 C-12.61268692 20.28775382 -14.24901874 17.62647188 -16 15 C-16.10994933 8.29309097 -16.10994933 8.29309097 -13.4375 5.1796875 C-9.07593217 1.41783525 -5.95846055 -0.8827349 0 0 Z " fill="#201B50" transform="translate(393,82)"/>
<path d="M0 0 C8.79531088 -0.62035892 15.6965099 -0.30907549 23 5 C26.64269592 8.90923464 27.78548628 12.66168946 28.171875 17.88671875 C27.90200858 21.20484899 26.3610909 22.77008082 24 25 C23.13375 25.8971875 23.13375 25.8971875 22.25 26.8125 C21.8375 27.204375 21.425 27.59625 21 28 C26.09304524 33.95460964 32.84228476 36.84323102 39.72070312 40.36328125 C46.8916602 44.13231671 53.43664304 48.15496456 58 55 C58.86300294 60.78324049 58.15319723 66.03132557 55 71 C46.68699116 77.61182349 36.28542659 78.32803017 26.046875 78.08984375 C24.19271073 78.06944278 22.33854396 78.04926704 20.484375 78.02929688 C17.60535275 77.98569772 14.7265113 77.93706334 11.84765625 77.88354492 C9.03906921 77.83519492 6.23072733 77.80539456 3.421875 77.77734375 C2.56551453 77.75558578 1.70915405 77.73382782 0.82684326 77.71141052 C-4.21697349 77.66970661 -7.63869992 78.17299961 -12 81 C-16.91720203 86.87332465 -18.30644574 92.91414565 -17.875 100.375 C-16.22614696 113.80666798 -8.67792162 123.22446106 1.27270508 131.94824219 C6.3946003 135.80146996 12.21473665 138.37038549 18 141.0625 C31.13781638 147.21414228 44.42897629 154.09498533 50.19140625 168.25 C52.8497158 177.29082089 53.03070255 186.95419338 53.4375 196.3125 C53.87841517 205.97982139 55.28064329 214.96198517 61 223 C62.24691041 224.11078482 63.52027655 225.1922727 64.8125 226.25 C73.80642141 233.77005719 79.15787752 245.02514314 80.38183594 256.6159668 C80.53569529 260.50292676 80.55459442 264.36044559 80.5 268.25 C80.4947934 268.93154144 80.48958679 269.61308289 80.48422241 270.3152771 C80.35004551 285.28269991 78.85133676 301.43200329 68.4375 313.1875 C67.633125 313.785625 66.82875 314.38375 66 315 C63.84765625 314.61328125 63.84765625 314.61328125 62 314 C62.03480469 312.85144531 62.06960938 311.70289063 62.10546875 310.51953125 C62.61575223 287.04395222 54.38445526 268.28261984 40 250 C38.88818359 248.57300781 38.88818359 248.57300781 37.75390625 247.1171875 C26.10915975 232.54568653 12.8708717 218.09910615 -1.83203125 206.5625 C-7.3331497 202.15201723 -11.7479804 196.75605879 -14 190 C-15.14372847 173.14406732 -15.14372847 173.14406732 -10 166 C-6.95714746 164.07621306 -5.79099336 164 -2 164 C-1.79246094 164.61746094 -1.58492188 165.23492187 -1.37109375 165.87109375 C0.96815555 172.30158242 3.87213551 178.31989083 9 183 C11.57267402 183.88460681 11.57267402 183.88460681 14 184 C15.29921346 182.89745874 15.29921346 182.89745874 15.4375 180.1875 C15.300973 172.81504201 10.63223596 165.34785636 5.75 160.0625 C-0.54691817 154.24903044 -7.84171316 149.50309307 -14.81689453 144.55029297 C-34.94906645 130.25379423 -50.06712827 114.18585007 -61 92 C-61.38671875 91.22011719 -61.7734375 90.44023438 -62.171875 89.63671875 C-65.39731875 81.80132472 -65.3233692 71.25790238 -63.2734375 63.11328125 C-59.60062382 54.31943061 -53.59413012 48.8927713 -45 45 C-34.37834024 41.66061455 -23.03437653 40.99991685 -12 40 C-12 35.18844036 -12.78771238 34.4278421 -16 31 C-18.01794246 29.36025645 -20.08332472 27.77751336 -22.1875 26.25 C-27.96670306 22.03329694 -27.96670306 22.03329694 -29 21 C-29.23828125 19.0390625 -29.23828125 19.0390625 -29.3125 16.625 C-29.36857422 15.43777344 -29.36857422 15.43777344 -29.42578125 14.2265625 C-29 12 -29 12 -27.38061523 10.37915039 C-24.25329874 8.56741714 -22.08602945 8.65791778 -18.484375 8.70703125 C-17.23398437 8.71669922 -15.98359375 8.72636719 -14.6953125 8.73632812 C-12.74238281 8.7740332 -12.74238281 8.7740332 -10.75 8.8125 C-9.43257813 8.82603516 -8.11515625 8.83957031 -6.7578125 8.85351562 C-3.50479679 8.88887449 -0.252604 8.93822967 3 9 C2.01 6.03 1.02 3.06 0 0 Z " fill="#375A9C" transform="translate(284,7)"/>
<path d="M0 0 C2.1640625 0.9296875 2.1640625 0.9296875 3.1640625 1.9296875 C4.89386599 14.53763662 1.65474625 26.00537997 -1.90209961 37.97924805 C-5.8918967 51.62921466 -8.46340391 67.31423949 -1.4609375 80.5234375 C0.27801293 82.83089095 2.14754064 84.86078845 4.1640625 86.9296875 C4.88980469 87.75597656 5.61554688 88.58226562 6.36328125 89.43359375 C12.43359417 96.28532843 18.89274628 102.7585365 25.3515625 109.2421875 C26.19485107 110.09014893 27.03813965 110.93811035 27.90698242 111.81176758 C32.28276326 116.17638243 36.73683943 120.36631894 41.41967773 124.39868164 C57.61241284 138.6106679 70.70184296 160.72402451 72.44140625 182.3828125 C72.66980846 190.38602607 71.61101428 195.25925984 67.1640625 201.9296875 C63.7946634 202.95626468 61.91604756 203.23854885 58.62890625 201.88842773 C57.37787109 201.07160522 57.37787109 201.07160522 56.1015625 200.23828125 C55.15047607 199.63000488 54.19938965 199.02172852 53.21948242 198.39501953 C52.21119385 197.72583496 51.20290527 197.05665039 50.1640625 196.3671875 C49.11259033 195.68769043 48.06111816 195.00819336 46.9777832 194.30810547 C44.78673848 192.8920004 42.59968523 191.46970202 40.41650391 190.04150391 C37.32590115 188.03476965 34.21226401 186.07309622 31.08203125 184.12890625 C13.32348196 173.08315424 0.37145622 162.56995329 -10.3984375 144.3046875 C-11.60412709 142.29216436 -12.81120784 140.28047414 -14.01953125 138.26953125 C-14.63940918 137.23554199 -15.25928711 136.20155273 -15.89794922 135.13623047 C-19.19654304 129.67846638 -22.57701633 124.27232126 -25.9609375 118.8671875 C-26.58814697 117.86284668 -27.21535645 116.85850586 -27.86157227 115.82373047 C-31.28179382 110.3294024 -31.28179382 110.3294024 -35.00268555 105.03857422 C-41.41591744 94.16281248 -35.37683477 75.24974399 -33.26538086 63.6472168 C-32.64828571 60.24134977 -32.06011737 56.83134466 -31.47460938 53.41992188 C-26.36298274 24.34322076 -26.36298274 24.34322076 -15.8359375 12.9296875 C-15.33932617 12.38151367 -14.84271484 11.83333984 -14.33105469 11.26855469 C-12.64636264 9.42521007 -10.93458743 7.6116149 -9.2109375 5.8046875 C-8.38529297 4.91426758 -8.38529297 4.91426758 -7.54296875 4.00585938 C-3.51312513 -0.08710228 -3.51312513 -0.08710228 0 0 Z " fill="#201B50" transform="translate(210.8359375,162.0703125)"/>
<path d="M0 0 C5.45425982 3.09575415 9.59899208 7.32407696 13.98828125 11.7578125 C14.73208542 12.50207489 15.47588959 13.24633728 16.24223328 14.01315308 C17.80522407 15.579153 19.36579581 17.14757064 20.92407227 18.71826172 C23.3166612 21.1291931 25.71724211 23.53194045 28.11914062 25.93359375 C29.63849512 27.45786072 31.15739164 28.98258436 32.67578125 30.5078125 C33.39550613 31.22865021 34.11523102 31.94948792 34.85676575 32.69216919 C35.51802963 33.35981293 36.17929352 34.02745667 36.8605957 34.71533203 C37.44428421 35.30283234 38.02797272 35.89033264 38.62934875 36.49563599 C41.49642087 39.64240299 41.9268313 43.03412067 41.95703125 47.18359375 C39.70749188 53.80366675 30.95605732 58.02197134 25 61 C19.34766248 61.54349399 16.32963128 60.43461851 12 57 C9.5396231 54.79192474 7.21046505 52.46777367 4.88671875 50.1171875 C4.23169876 49.46170929 3.57667877 48.80623108 2.90180969 48.13088989 C1.52713071 46.75320465 0.15486788 45.3731047 -1.21508789 43.99072266 C-3.31795905 41.8694933 -5.42882488 39.75647693 -7.54101562 37.64453125 C-8.87807879 36.30255605 -10.21468376 34.96012415 -11.55078125 33.6171875 C-12.18301102 32.98384491 -12.81524078 32.35050232 -13.46662903 31.69796753 C-14.04780991 31.1104068 -14.62899078 30.52284607 -15.2277832 29.91748047 C-15.74041214 29.40103973 -16.25304108 28.884599 -16.78120422 28.35250854 C-19.47872611 25.35904445 -19.45141523 22.38004574 -19.4140625 18.5078125 C-18.65046163 13.88298457 -15.86437821 10.59226727 -13 7 C-12.52433594 6.38511719 -12.04867188 5.77023438 -11.55859375 5.13671875 C-7.89450196 0.55386961 -5.90166501 -0.56746779 0 0 Z " fill="#201B50" transform="translate(431,66)"/>
</svg>
